<svg version="1.1" id="Layer_1" xmlns="http://www.w3.org/2000/svg" xmlns:xlink="http://www.w3.org/1999/xlink"
	 viewBox="62 58 378 378" width="512" height="512" xml:space="preserve" preserveAspectRatio="xMidYMid meet"
	 shape-rendering="geometricPrecision">
<path fill="#2941F1" opacity="1.000000" stroke="none" 
	d="
M111.114899,198.735718 
	C111.707138,198.040451 112.299377,197.345200 113.402908,196.363297 
	C114.604309,194.983810 115.294426,193.890961 115.984543,192.798111 
	C120.591751,189.883743 125.156532,186.899521 129.814987,184.069504 
	C139.667908,178.083786 149.472473,172.008652 159.475143,166.281555 
	C173.321426,158.353745 187.383316,150.803131 201.254822,142.918518 
	C211.324020,137.195160 221.293945,131.290009 231.181213,125.257889 
	C234.395309,123.297005 237.208099,120.678352 240.861954,118.255951 
	C242.306885,117.705116 243.094269,117.258881 244.126297,116.772095 
	C244.667068,116.561737 244.892487,116.324669 245.322998,115.757019 
	C246.045425,112.774559 246.875626,110.054764 246.870834,107.336449 
	C246.852295,96.824036 246.289688,86.305588 246.535461,75.803566 
	C246.619385,72.217796 248.516312,68.682632 249.517151,65.105400 
	C249.838364,63.957344 249.942200,62.748463 250.145477,61.567406 
	C250.145462,61.567402 250.275787,61.257412 250.836884,61.453503 
	C252.998581,61.574772 255.470108,62.126842 256.051849,61.318638 
	C258.849274,57.432281 261.948822,59.375732 264.843292,60.526829 
	C268.780518,62.092617 272.511566,64.169624 276.407135,65.851036 
	C277.848236,66.473038 279.505035,66.595329 281.063446,66.945518 
	C281.063446,66.945518 281.013306,67.005394 281.054108,67.328415 
	C283.761963,69.714249 286.250031,72.078690 289.127747,73.786484 
	C300.293976,80.413101 311.531738,86.924004 322.846985,93.292961 
	C330.127869,97.391121 337.590485,101.166405 345.118652,105.322327 
	C345.849121,105.997795 346.432556,106.437332 347.332764,106.929550 
	C348.074554,107.032745 348.499573,107.083275 349.182678,107.353561 
	C350.323883,107.694092 351.206940,107.814857 352.090027,107.935623 
	C352.090027,107.935631 352.007355,107.961273 352.049805,108.288208 
	C352.556885,109.270561 352.877045,110.168190 353.508087,110.544678 
	C361.620605,115.384857 369.952393,119.881950 377.862366,125.028824 
	C383.217438,128.513290 388.144989,132.412399 388.126099,140.174362 
	C387.967804,205.151306 388.047729,270.128784 387.994537,335.106079 
	C387.990662,339.807098 387.107025,344.120819 382.607330,347.160248 
	C380.835602,348.357025 379.707794,351.070770 379.096222,353.314392 
	C377.359314,359.685974 374.082520,364.842407 368.414276,368.266449 
	C365.442078,370.061890 362.173096,371.361481 359.171295,373.113159 
	C346.087799,380.748138 333.062775,388.483215 319.997711,396.149902 
	C309.995850,402.019043 300.023224,407.941528 289.933319,413.656158 
	C278.299713,420.245117 266.697693,426.924713 254.743942,432.887360 
	C251.976471,434.267792 247.227936,434.057190 244.438843,432.588684 
	C234.108414,427.149445 224.289230,420.750092 214.139740,414.953430 
	C202.835831,408.497498 191.318359,402.415253 180.019852,395.950134 
	C174.733109,392.925049 169.858887,389.182648 164.593735,386.115479 
	C153.301682,379.537476 141.784195,373.342926 130.559372,366.655121 
	C126.837914,364.437836 124.519295,361.009979 123.589134,356.251740 
	C122.915863,352.807556 120.089745,349.736359 118.030487,346.626801 
	C116.502388,344.319275 114.664040,342.217224 112.974274,339.552612 
	C112.983330,294.009338 113.002472,248.937103 112.901932,203.865143 
	C112.898117,202.154007 111.736824,200.445465 111.114899,198.735718 
M196.010559,302.613007 
	C196.425613,302.791016 196.840668,302.969025 197.867554,303.415924 
	C199.562973,307.869202 201.246094,312.327209 202.963028,316.772156 
	C203.357910,317.794464 203.594208,319.192780 204.371918,319.700378 
	C208.769257,322.570465 213.253006,325.320343 217.812256,327.927673 
	C227.345688,333.379547 236.908203,338.783569 246.547928,344.043854 
	C248.425262,345.068329 250.707306,345.351105 253.632828,346.001984 
	C254.774063,345.874847 256.117737,346.095490 257.025452,345.567169 
	C266.799469,339.878601 276.540710,334.130920 286.196625,328.244720 
	C287.994690,327.148621 289.374176,325.365875 290.992950,323.969910 
	C290.992950,323.969910 290.914337,323.940979 291.700043,323.983002 
	C295.952026,323.663239 299.095581,321.740479 299.865173,317.368164 
	C300.958435,311.156830 304.417480,306.743378 309.069855,302.704407 
	C311.041565,300.992676 312.796051,297.789581 312.812195,295.252594 
	C313.055115,257.008453 313.013428,218.762329 312.922821,180.516922 
	C312.919128,178.958176 311.777161,177.402130 310.959473,175.185608 
	C305.479034,171.495819 300.028656,167.758987 294.465393,164.198593 
	C293.979156,163.887421 292.751099,164.735336 291.488251,164.980835 
	C291.488251,164.980835 291.120361,164.868179 291.045929,164.139420 
	C290.742950,163.393387 290.656891,162.292404 290.104370,161.954788 
	C282.315735,157.195190 274.543732,152.397263 266.592010,147.920609 
	C262.821472,145.797882 257.402191,148.491196 257.137115,152.734100 
	C256.986267,153.145050 256.835449,153.556000 256.266174,154.682602 
	C256.160980,164.634048 256.410889,174.605743 255.844498,184.530869 
	C255.340469,193.362961 254.879410,202.005875 244.888397,207.083694 
	C232.001251,213.633423 219.699844,221.403000 207.521408,229.230972 
	C204.593552,231.112961 199.070847,230.414841 199.044525,235.997650 
	C199.044525,235.997650 199.061661,236.037994 198.309494,235.960510 
	C196.828354,236.904221 195.347198,237.847916 193.350357,239.126831 
	C192.342819,239.833954 191.335297,240.541077 189.562149,241.465958 
	C189.050781,242.934052 188.104691,244.399216 188.094803,245.870682 
	C187.986954,261.914673 187.981842,277.959991 188.102005,294.003784 
	C188.112350,295.384857 189.217010,296.757721 190.155579,298.731293 
	C191.796448,299.477814 193.437317,300.224335 195.010132,300.984497 
	C195.010132,300.984497 195.012222,300.915131 194.920288,301.583649 
	C195.308075,301.720398 195.695862,301.857147 196.002182,301.996887 
	C196.002182,301.996887 195.999817,301.915375 196.010559,302.613007 
M139.334335,192.003998 
	C138.877243,192.318390 138.420151,192.632797 137.222046,192.982285 
	C134.191055,194.607483 131.316833,196.726746 128.094574,197.749252 
	C122.374565,199.564377 121.928856,203.606888 121.942047,208.627670 
	C122.049179,249.375473 121.985847,290.123688 122.025139,330.871765 
	C122.026848,332.643738 122.522217,334.415222 122.896408,336.957703 
	C124.225708,341.544647 128.642181,342.393372 134.330109,339.064728 
	C142.768143,334.126648 151.229752,329.223602 159.541382,324.079468 
	C161.099426,323.115204 162.001160,321.090485 163.286194,319.280945 
	C163.286194,319.280945 163.555771,319.186188 164.025375,319.468689 
	C164.049210,318.929016 164.073044,318.389313 163.985977,317.052887 
	C164.942688,310.349152 167.044907,304.283234 173.922012,300.445312 
	C175.226898,299.940399 176.531784,299.435516 178.456955,298.372742 
	C178.638412,296.576904 178.973190,294.781372 178.977295,292.985138 
	C179.012985,277.355652 179.078827,261.725220 178.940857,246.096817 
	C178.883026,239.546295 181.593109,234.661545 186.874390,231.096695 
	C189.758682,229.149826 192.866989,227.530853 195.714111,225.535492 
	C196.495987,224.987534 196.700500,223.615768 197.287247,222.275909 
	C197.287247,222.275909 197.636063,222.166916 198.340302,222.659042 
	C204.360886,221.664856 209.460693,219.123260 213.005203,213.995346 
	C213.005203,213.995346 212.954208,213.973267 213.633820,214.016647 
	C214.087097,214.017105 214.540375,214.017563 215.707794,213.929459 
	C223.659119,209.611511 231.443787,204.937912 239.622589,201.105438 
	C244.748199,198.703659 246.894867,195.084579 246.940506,189.884445 
	C247.036591,178.938675 247.138779,167.986313 246.818619,157.048950 
	C246.751297,154.749191 245.286377,152.164764 243.748734,150.303635 
	C240.836227,146.778351 237.522217,143.550323 234.106964,140.498749 
	C233.236572,139.721054 231.360870,140.068481 229.472717,139.904633 
	C229.472717,139.904633 229.001053,139.955307 228.333984,139.977631 
	C227.575150,140.333481 226.816330,140.689346 225.525772,141.514557 
	C221.423721,143.642548 217.258011,145.657227 213.231461,147.919617 
	C200.747910,154.933746 188.314285,162.036850 175.874100,169.127914 
	C175.193237,169.516022 174.670197,170.173889 174.003494,170.595047 
	C169.037430,173.732056 164.036316,176.813766 159.080795,179.967209 
	C155.013611,182.555389 150.994019,185.218353 146.382919,187.988037 
	C145.913467,188.311615 145.444031,188.635193 144.959930,188.978210 
	C144.959930,188.978210 144.950165,188.952347 144.276169,188.979187 
	C143.467300,189.598923 142.658447,190.218658 141.300537,190.979218 
	C140.829269,191.280396 140.358017,191.581573 139.334335,192.003998 
M257.647583,116.577316 
	C258.454376,117.071266 259.261169,117.565216 260.699707,118.290016 
	C266.427582,122.865479 270.266724,128.391556 269.986420,136.134918 
	C269.961060,136.835785 270.837097,137.841248 271.554321,138.255051 
	C279.005646,142.554276 286.571716,146.657303 293.973083,151.039276 
	C297.456604,153.101685 300.651855,155.650955 304.123108,158.680954 
	C305.144928,159.123230 306.166748,159.565506 307.493561,160.030228 
	C307.493561,160.030228 307.783325,160.127975 308.000702,160.787354 
	C311.512756,163.458038 313.950043,168.034332 319.680450,167.312607 
	C319.680450,167.312607 319.761017,167.571503 319.335785,168.311295 
	C323.020294,176.439163 322.023041,185.075943 322.030945,193.588898 
	C322.061554,226.509262 322.016449,259.429749 322.112915,292.349854 
	C322.118561,294.275696 323.123108,296.198578 324.415619,298.422791 
	C324.634460,298.264435 324.853333,298.106110 325.002075,298.000000 
	C325.002075,298.000000 325.062805,297.937317 324.493896,298.500549 
	C324.671631,298.999542 324.849365,299.498505 325.036835,300.712952 
	C328.326355,305.173401 331.601624,309.644562 334.919739,314.083618 
	C335.458740,314.804718 336.187561,315.383850 336.941681,316.829803 
	C337.721497,317.947784 338.253876,319.472626 339.319489,320.120697 
	C349.659393,326.409088 360.062103,332.596039 370.514435,338.696228 
	C372.660614,339.948761 375.059631,340.475616 377.472351,337.720001 
	C377.708649,337.194733 377.944916,336.669464 378.598419,336.101257 
	C378.598419,336.101257 379.011383,336.027740 379.776978,335.789490 
	C380.180054,334.108398 380.933746,332.427643 380.935455,330.746124 
	C380.996216,271.184509 381.028168,211.622711 380.900696,152.061295 
	C380.891388,147.701675 379.657104,143.344666 378.598877,138.896469 
	C378.598877,138.896469 378.198090,138.847687 377.950989,138.476776 
	C377.739716,138.252731 377.483185,138.110199 376.859009,137.403137 
	C361.047333,128.239502 345.205963,119.126678 329.431152,109.900017 
	C307.368561,96.995636 285.375031,83.972862 263.259460,71.160416 
	C262.241425,70.570633 260.318359,71.542999 257.984070,71.970192 
	C257.619507,72.813789 256.942047,73.655647 256.937347,74.501259 
	C256.864441,87.566002 256.858063,100.631332 256.925293,113.696083 
	C256.929321,114.473549 257.685608,115.247147 258.017273,115.998428 
	C258.017273,115.998428 258.044006,115.924751 257.647583,116.577316 
M220.511398,344.995575 
	C213.703583,340.849640 206.951782,336.605804 200.036606,332.647461 
	C198.781891,331.929260 196.301987,331.659363 195.332901,332.407288 
	C188.743546,337.492706 175.882629,336.948303 170.323257,331.186310 
	C159.385727,337.466797 148.344162,343.639465 137.490479,350.126526 
	C133.469147,352.529968 133.944641,356.298065 138.068436,358.632019 
	C145.094467,362.608643 152.135880,366.561523 159.086227,370.667542 
	C168.789551,376.399933 178.346466,382.382263 188.093735,388.037537 
	C197.369415,393.419220 206.841980,398.460297 216.167816,403.757019 
	C226.372040,409.552704 236.645309,415.248413 246.598465,421.452942 
	C250.135101,423.657562 252.526535,422.882751 255.544922,421.013947 
	C263.176971,416.288727 270.856842,411.629913 278.656647,407.188751 
	C291.203125,400.044830 303.882538,393.134766 316.465057,386.053558 
	C324.328888,381.627991 332.152740,377.128754 339.931000,372.554565 
	C348.033661,367.789551 356.107483,362.971497 364.099792,358.024536 
	C368.141052,355.523132 367.940918,352.892395 363.773621,350.376984 
	C360.468018,348.381653 357.157410,346.394348 353.834778,344.427582 
	C346.162354,339.886169 338.481232,335.359375 330.875275,330.868927 
	C325.021942,336.748535 315.794922,337.679779 309.519531,334.324188 
	C303.090942,330.886627 299.377441,333.874176 294.565216,336.677124 
	C281.920471,344.042206 269.067413,351.049652 256.295532,358.196350 
	C252.813766,360.144592 249.533905,360.591125 245.707077,358.441559 
	C237.615967,353.896698 229.265427,349.813690 220.511398,344.995575 
z"/>
<path fill="#4454D8" opacity="1.000000" stroke="none" 
	d="
M112.963890,340.023651 
	C114.664040,342.217224 116.502388,344.319275 118.030487,346.626801 
	C120.089745,349.736359 122.915863,352.807556 123.589134,356.251740 
	C124.519295,361.009979 126.837914,364.437836 130.559372,366.655121 
	C141.784195,373.342926 153.301682,379.537476 164.593735,386.115479 
	C169.858887,389.182648 174.733109,392.925049 180.019852,395.950134 
	C191.318359,402.415253 202.835831,408.497498 214.139740,414.953430 
	C224.289230,420.750092 234.108414,427.149445 244.438843,432.588684 
	C247.227936,434.057190 251.976471,434.267792 254.743942,432.887360 
	C266.697693,426.924713 278.299713,420.245117 289.933319,413.656158 
	C300.023224,407.941528 309.995850,402.019043 319.997711,396.149902 
	C333.062775,388.483215 346.087799,380.748138 359.171295,373.113159 
	C362.173096,371.361481 365.442078,370.061890 368.414276,368.266449 
	C374.082520,364.842407 377.359314,359.685974 379.096222,353.314392 
	C379.707794,351.070770 380.835602,348.357025 382.607330,347.160248 
	C387.107025,344.120819 387.990662,339.807098 387.994537,335.106079 
	C388.047729,270.128784 387.967804,205.151306 388.126099,140.174362 
	C388.144989,132.412399 383.217438,128.513290 377.862366,125.028824 
	C369.952393,119.881950 361.620605,115.384857 353.508087,110.544678 
	C352.877045,110.168190 352.556885,109.270561 352.075623,108.253494 
	C361.035950,113.052841 370.016449,118.207542 378.987274,123.379082 
	C381.342896,124.737053 384.222290,125.685104 385.864258,127.653137 
	C387.810394,129.985657 388.678436,133.217682 389.969818,136.930664 
	C389.942261,203.163956 389.951904,268.526459 390.011627,333.888916 
	C390.013214,335.622864 390.559113,337.356293 390.851196,339.089966 
	C388.882141,342.215424 387.112213,345.492676 384.881378,348.418518 
	C383.077911,350.783813 381.340912,352.596405 380.687592,356.033875 
	C379.411865,362.746002 375.132538,367.703583 368.683380,371.202423 
	C354.794586,378.737488 341.313171,387.021942 327.636841,394.951019 
	C321.335602,398.604218 314.915253,402.053558 308.642029,405.753235 
	C297.198486,412.502197 285.910919,419.519867 274.386810,426.126251 
	C268.076263,429.743866 261.418640,432.756897 254.910675,436.028839 
	C250.112640,438.441132 245.432953,436.862000 241.356125,434.642975 
	C230.650772,428.816162 220.200027,422.517487 209.699524,416.319244 
	C194.153320,407.142609 178.682938,397.837280 163.120544,388.688324 
	C152.088486,382.202728 140.932846,375.927643 129.882462,369.472839 
	C124.993980,366.617340 122.532639,362.389160 120.728416,356.797241 
	C119.069115,351.654449 114.549187,347.434692 111.254700,342.143616 
	C111.280952,340.994537 111.341980,340.510132 111.663269,340.015869 
	C112.270325,340.011841 112.617104,340.017761 112.963890,340.023651 
z"/>
<path fill="#9DA6FF" opacity="1.000000" stroke="none" 
	d="
M390.930786,338.656677 
	C390.559113,337.356293 390.013214,335.622864 390.011627,333.888916 
	C389.951904,268.526459 389.942261,203.163956 389.949585,137.321686 
	C390.646912,138.398911 391.907257,139.955017 391.909668,141.513077 
	C392.007385,205.015228 392.001068,268.517548 391.949432,332.019836 
	C391.947754,334.087952 391.337128,336.155518 390.930786,338.656677 
z"/>
<path fill="#3948BB" opacity="1.000000" stroke="none" 
	d="
M112.974274,339.552612 
	C112.617104,340.017761 112.270325,340.011841 111.522812,339.559631 
	C111.105316,292.675293 111.088547,246.237274 111.071777,199.799271 
	C111.046822,199.621506 111.021873,199.443741 111.055908,199.000854 
	C111.736824,200.445465 112.898117,202.154007 112.901932,203.865143 
	C113.002472,248.937103 112.983330,294.009338 112.974274,339.552612 
z"/>
<path fill="#4051D2" opacity="1.000000" stroke="none" 
	d="
M344.971649,105.086403 
	C337.590485,101.166405 330.127869,97.391121 322.846985,93.292961 
	C311.531738,86.924004 300.293976,80.413101 289.127747,73.786484 
	C286.250031,72.078690 283.761963,69.714249 281.071991,67.294571 
	C286.815765,69.981087 292.659302,72.888390 298.334229,76.094223 
	C313.358429,84.581612 328.311127,93.195496 343.281860,101.777267 
	C343.699310,102.016563 343.998169,102.462685 344.672058,103.297325 
	C344.985077,104.216995 344.978363,104.651695 344.971649,105.086403 
z"/>
<path fill="#B7B7FF" opacity="1.000000" stroke="none" 
	d="
M110.669167,200.011459 
	C111.088547,246.237274 111.105316,292.675293 111.262543,339.569519 
	C111.341980,340.510132 111.280952,340.994537 111.140419,341.837860 
	C110.707169,341.044617 110.045395,339.892792 110.044098,338.740204 
	C109.992661,293.220856 110.000114,247.701462 110.012962,202.182068 
	C110.013145,201.529251 110.178368,200.876450 110.669167,200.011459 
z"/>
<path fill="#4051D2" opacity="1.000000" stroke="none" 
	d="
M249.848663,61.702419 
	C249.942200,62.748463 249.838364,63.957344 249.517151,65.105400 
	C248.516312,68.682632 246.619385,72.217796 246.535461,75.803566 
	C246.289688,86.305588 246.852295,96.824036 246.870834,107.336449 
	C246.875626,110.054764 246.045425,112.774559 245.285904,115.287415 
	C244.961395,102.132439 244.977982,89.183556 244.904938,76.235184 
	C244.895035,74.478806 244.436005,72.724960 244.184952,70.969948 
	C245.973907,67.925774 247.762878,64.881607 249.848663,61.702419 
z"/>
<path fill="#4051D2" opacity="1.000000" stroke="none" 
	d="
M281.053192,66.569427 
	C279.505035,66.595329 277.848236,66.473038 276.407135,65.851036 
	C272.511566,64.169624 268.780518,62.092617 264.843292,60.526829 
	C261.948822,59.375732 258.849274,57.432281 256.051849,61.318638 
	C255.470108,62.126842 252.998581,61.574772 250.998444,61.406952 
	C255.016632,56.119358 261.171692,57.277523 266.144165,58.429424 
	C271.426453,59.653107 276.102295,63.494854 281.053192,66.569427 
z"/>
<path fill="#8795F6" opacity="1.000000" stroke="none" 
	d="
M244.085327,71.385941 
	C244.436005,72.724960 244.895035,74.478806 244.904938,76.235184 
	C244.977982,89.183556 244.961395,102.132439 245.010101,115.550766 
	C244.892487,116.324669 244.667068,116.561737 244.135834,116.317429 
	C243.929214,107.837006 244.037247,99.769814 243.946991,91.704842 
	C243.910934,88.483482 243.437347,85.267029 243.162933,82.048340 
	C243.437180,78.632874 243.711441,75.217400 244.085327,71.385941 
z"/>
<path fill="#C8D3FF" opacity="1.000000" stroke="none" 
	d="
M243.089783,82.509109 
	C243.437347,85.267029 243.910934,88.483482 243.946991,91.704842 
	C244.037247,99.769814 243.929214,107.837006 243.891190,116.357971 
	C243.094269,117.258881 242.306885,117.705116 241.174759,118.141266 
	C241.545868,114.873940 242.761795,111.634712 242.879944,108.355934 
	C243.184570,99.903244 243.003601,91.433067 243.089783,82.509109 
z"/>
<path fill="#4454D8" opacity="1.000000" stroke="none" 
	d="
M345.118652,105.322327 
	C344.978363,104.651695 344.985077,104.216995 344.995789,103.456970 
	C345.945282,103.508438 346.890778,103.885223 347.855896,104.809830 
	C347.589050,105.864059 347.302521,106.370468 347.015991,106.876877 
	C346.432556,106.437332 345.849121,105.997795 345.118652,105.322327 
z"/>
<path fill="#3948BB" opacity="1.000000" stroke="none" 
	d="
M115.692398,192.947891 
	C115.294426,193.890961 114.604309,194.983810 113.546494,196.123749 
	C113.919281,195.146439 114.659767,194.122055 115.692398,192.947891 
z"/>
<path fill="#4454D8" opacity="1.000000" stroke="none" 
	d="
M351.976013,107.641846 
	C351.206940,107.814857 350.323883,107.694092 349.203003,107.016510 
	C348.976135,106.012665 348.987061,105.565636 348.997986,105.118599 
	C349.952667,105.861755 350.907349,106.604912 351.976013,107.641846 
z"/>
<path fill="#4051D2" opacity="1.000000" stroke="none" 
	d="
M348.777344,105.049698 
	C348.987061,105.565636 348.976135,106.012665 348.944885,106.796753 
	C348.499573,107.083275 348.074554,107.032745 347.332764,106.929543 
	C347.302521,106.370468 347.589050,105.864059 347.998291,105.092133 
	C348.120972,104.826622 348.556763,104.980804 348.777344,105.049698 
z"/>
<path fill="#000000" opacity="1.000000" stroke="none" 
	d="
M291.120361,164.868179 
	C291.120361,164.868179 291.488251,164.980835 291.835419,165.333496 
	C297.768646,169.158524 303.354675,172.630905 309.150574,176.465240 
	C309.574707,177.584915 309.976593,178.342667 309.976532,179.100372 
	C309.972565,218.728073 309.934601,258.355774 309.937073,297.982178 
	C309.973938,297.980835 309.965851,297.907532 309.651276,297.983246 
	C309.062195,298.392883 308.787720,298.726807 308.444244,298.999359 
	C308.375244,298.937988 308.244415,299.068390 307.951660,299.070618 
	C307.490479,299.373352 307.322052,299.673828 306.996643,300.291290 
	C304.390839,303.394073 300.751892,305.812347 299.753265,309.046021 
	C297.949890,314.885559 296.835052,320.702820 290.914337,323.940979 
	C290.914337,323.940979 290.992950,323.969910 290.593994,323.955261 
	C289.555603,324.060272 288.818176,324.013794 288.291229,324.324341 
	C278.959839,329.824432 269.635345,335.336853 260.354736,340.922058 
	C257.762421,342.482147 255.316040,344.284668 252.802704,345.975952 
	C250.707306,345.351105 248.425262,345.068329 246.547928,344.043854 
	C236.908203,338.783569 227.345688,333.379547 217.812256,327.927673 
	C213.253006,325.320343 208.769257,322.570465 204.371918,319.700378 
	C203.594208,319.192780 203.357910,317.794464 202.963028,316.772156 
	C201.246094,312.327209 199.562973,307.869202 197.433289,302.994263 
	C196.665955,302.353516 196.332886,302.134460 195.999817,301.915375 
	C195.999817,301.915375 196.002182,301.996887 195.973694,301.725159 
	C195.634216,301.273987 195.323212,301.094574 195.012222,300.915131 
	C195.012222,300.915131 195.010132,300.984497 195.015015,300.572479 
	C191.226303,298.797089 190.859283,295.924561 190.924805,292.304840 
	C191.144226,280.183228 190.970657,268.055023 191.024231,255.929672 
	C191.050354,250.017532 189.511322,243.686844 195.385406,238.975403 
	C196.816010,237.918777 197.938828,236.978378 199.061646,236.037994 
	C199.061661,236.037994 199.044525,235.997650 199.404510,235.999283 
	C206.896210,232.182434 214.104980,228.499771 221.138824,224.508804 
	C228.781631,220.172272 236.301224,215.613602 243.799316,211.028763 
	C249.011414,207.841721 255.249298,205.533981 256.459351,198.056915 
	C257.269287,196.583084 257.948151,195.162445 257.957672,193.737350 
	C258.039734,181.460571 257.927612,169.182053 258.087006,156.906799 
	C258.108002,155.287277 259.330841,153.683365 260.334503,151.935059 
	C262.679718,149.613815 264.414093,149.765137 267.067902,151.377579 
	C274.919128,156.148026 283.080383,160.408340 291.120361,164.868179 
z"/>
<path fill="#000000" opacity="1.000000" stroke="none" 
	d="
M307.783325,160.127975 
	C307.783325,160.127975 307.493561,160.030228 307.265442,159.641174 
	C306.017456,158.827957 304.997620,158.403793 303.977753,157.979614 
	C300.651855,155.650955 297.456604,153.101685 293.973083,151.039276 
	C286.571716,146.657303 279.005646,142.554276 271.554321,138.255051 
	C270.837097,137.841248 269.961060,136.835785 269.986420,136.134918 
	C270.266724,128.391556 266.427582,122.865479 260.345764,117.803680 
	C259.342529,116.853149 258.693268,116.388954 258.044006,115.924759 
	C258.044006,115.924751 258.017273,115.998428 258.010010,115.541420 
	C258.274139,100.652206 258.545502,86.220001 258.816833,71.787796 
	C260.318359,71.542999 262.241425,70.570633 263.259460,71.160416 
	C285.375031,83.972862 307.368561,96.995636 329.431152,109.900017 
	C345.205963,119.126678 361.047333,128.239502 376.947144,138.188217 
	C377.011047,205.314987 376.986816,271.656677 376.962585,337.998352 
	C375.059631,340.475616 372.660614,339.948761 370.514435,338.696228 
	C360.062103,332.596039 349.659393,326.409088 339.319489,320.120697 
	C338.253876,319.472626 337.721497,317.947784 336.952393,316.033875 
	C335.217651,310.117279 334.286163,304.568756 329.288788,300.720032 
	C327.737274,299.576019 326.400055,298.756653 325.062805,297.937317 
	C325.062805,297.937317 325.002075,298.000000 325.006775,297.510162 
	C325.010376,279.584839 325.008057,262.149353 325.008453,244.713867 
	C325.008942,222.462860 325.044525,200.211700 324.931305,177.961273 
	C324.924530,176.634323 323.733429,175.313400 323.075928,173.616699 
	C321.959290,171.352997 320.860138,169.462250 319.761017,167.571503 
	C319.761017,167.571503 319.680450,167.312607 319.395386,166.995087 
	C315.334686,164.494370 311.558990,162.311172 307.783325,160.127975 
z"/>
<path fill="#000000" opacity="1.000000" stroke="none" 
	d="
M220.766342,345.268433 
	C229.265427,349.813690 237.615967,353.896698 245.707077,358.441559 
	C249.533905,360.591125 252.813766,360.144592 256.295532,358.196350 
	C269.067413,351.049652 281.920471,344.042206 294.565216,336.677124 
	C299.377441,333.874176 303.090942,330.886627 309.519531,334.324188 
	C315.794922,337.679779 325.021942,336.748535 330.875275,330.868927 
	C338.481232,335.359375 346.162354,339.886169 353.834778,344.427582 
	C357.157410,346.394348 360.468018,348.381653 363.773621,350.376984 
	C367.940918,352.892395 368.141052,355.523132 364.099792,358.024536 
	C356.107483,362.971497 348.033661,367.789551 339.931000,372.554565 
	C332.152740,377.128754 324.328888,381.627991 316.465057,386.053558 
	C303.882538,393.134766 291.203125,400.044830 278.656647,407.188751 
	C270.856842,411.629913 263.176971,416.288727 255.544922,421.013947 
	C252.526535,422.882751 250.135101,423.657562 246.598465,421.452942 
	C236.645309,415.248413 226.372040,409.552704 216.167816,403.757019 
	C206.841980,398.460297 197.369415,393.419220 188.093735,388.037537 
	C178.346466,382.382263 168.789551,376.399933 159.086227,370.667542 
	C152.135880,366.561523 145.094467,362.608643 138.068436,358.632019 
	C133.944641,356.298065 133.469147,352.529968 137.490479,350.126526 
	C148.344162,343.639465 159.385727,337.466797 170.323257,331.186310 
	C175.882629,336.948303 188.743546,337.492706 195.332901,332.407288 
	C196.301987,331.659363 198.781891,331.929260 200.036606,332.647461 
	C206.951782,336.605804 213.703583,340.849640 220.766342,345.268433 
z"/>
<path fill="#000000" opacity="1.000000" stroke="none" 
	d="
M173.213013,300.481171 
	C167.044907,304.283234 164.942688,310.349152 163.966309,317.682739 
	C163.821152,318.605957 163.690872,318.897125 163.555771,319.186188 
	C163.555771,319.186188 163.286194,319.280945 162.955292,319.551971 
	C152.314865,325.807312 141.931808,331.669983 131.732941,337.837219 
	C127.788261,340.222534 126.003334,340.078186 123.914948,335.489807 
	C123.991371,293.295563 123.988838,251.563156 124.022003,209.830765 
	C124.023560,207.877258 124.343567,205.924011 124.785301,203.775192 
	C129.378937,200.682236 133.702545,197.784729 138.365707,194.853943 
	C140.520004,193.596771 142.334763,192.372879 144.372849,191.099792 
	C144.596191,191.050613 145.033295,190.915878 145.378998,190.867905 
	C154.173874,185.711304 162.567917,180.508728 171.083298,175.512970 
	C190.722748,163.991028 210.421097,152.569489 230.444885,141.077301 
	C232.090469,142.427811 233.338837,143.857315 234.693024,145.178360 
	C237.402039,147.821091 240.169022,150.404419 242.959595,153.477768 
	C243.068359,164.573349 243.129608,175.203461 243.108871,186.286545 
	C243.055756,189.169510 243.084610,191.599503 243.029785,194.381195 
	C242.759811,195.171112 242.698410,195.822464 242.368591,196.015762 
	C236.964890,199.182434 231.460022,202.181381 226.120071,205.450287 
	C222.303818,207.786438 218.698624,210.467300 214.683716,213.003006 
	C213.896851,213.332199 213.425537,213.652740 212.954224,213.973267 
	C212.954208,213.973267 213.005203,213.995346 212.629822,213.989380 
	C207.381653,216.711243 202.508865,219.439072 197.636063,222.166916 
	C197.636063,222.166916 197.287247,222.275909 196.956055,222.611588 
	C192.376038,225.479004 187.747910,227.557159 184.001617,230.689880 
	C181.142838,233.080429 179.401428,236.807175 177.075775,240.366745 
	C176.659882,243.870529 176.070084,246.945190 176.047424,250.024017 
	C175.946869,263.682587 175.954926,277.342712 176.049377,291.001434 
	C176.073700,294.518646 176.132721,297.907990 173.213013,300.481171 
z"/>
<path fill="#2B3ED6" opacity="1.000000" stroke="none" 
	d="
M378.992310,138.986450 
	C379.657104,143.344666 380.891388,147.701675 380.900696,152.061295 
	C381.028168,211.622711 380.996216,271.184509 380.935455,330.746124 
	C380.933746,332.427643 380.180054,334.108398 379.370636,335.620483 
	C378.788025,334.916962 378.611755,334.382507 378.411591,333.508911 
	C378.386719,332.490173 378.385712,331.810577 378.567108,330.785217 
	C378.687286,328.581024 378.625061,326.722595 378.574219,324.470245 
	C378.586426,322.763153 378.587219,321.449982 378.725433,319.675018 
	C378.906830,318.381989 378.989136,317.550720 378.989258,316.719452 
	C378.996948,260.564697 379.002472,204.409958 378.975098,148.255234 
	C378.974396,146.789200 378.608765,145.323318 378.408936,143.519928 
	C378.422211,142.508118 378.439850,141.833725 378.609192,140.918701 
	C378.837982,140.114197 378.915161,139.550323 378.992310,138.986450 
z"/>
<path fill="#4F5FCE" opacity="1.000000" stroke="none" 
	d="
M319.548401,167.941406 
	C320.860138,169.462250 321.959290,171.352997 323.143677,174.022919 
	C323.454529,177.442245 323.871613,180.082047 323.876160,182.722565 
	C323.922974,210.036346 323.925629,237.350266 323.891174,264.664093 
	C323.877106,275.817078 323.742554,286.969910 323.662781,298.122833 
	C323.123108,296.198578 322.118561,294.275696 322.112915,292.349854 
	C322.016449,259.429749 322.061554,226.509262 322.030945,193.588898 
	C322.023041,185.075943 323.020294,176.439163 319.548401,167.941406 
z"/>
<path fill="#4454D8" opacity="1.000000" stroke="none" 
	d="
M230.095551,141.107208 
	C210.421097,152.569489 190.722748,163.991028 171.083298,175.512970 
	C162.567917,180.508728 154.173874,185.711304 145.364502,190.540817 
	C144.986252,189.825256 144.968216,189.388794 144.950165,188.952347 
	C144.950165,188.952347 144.959930,188.978210 145.270050,188.944977 
	C146.037872,188.557205 146.495590,188.202682 146.953308,187.848175 
	C150.994019,185.218353 155.013611,182.555389 159.080795,179.967209 
	C164.036316,176.813766 169.037430,173.732056 174.003494,170.595047 
	C174.670197,170.173889 175.193237,169.516022 175.874100,169.127914 
	C188.314285,162.036850 200.747910,154.933746 213.231461,147.919617 
	C217.258011,145.657227 221.423721,143.642548 226.120117,141.261780 
	C227.476669,140.657761 228.238861,140.306534 229.001053,139.955307 
	C229.001053,139.955307 229.472717,139.904633 229.747513,140.204300 
	C230.046722,140.705048 230.071136,140.906128 230.095551,141.107208 
z"/>
<path fill="#3F50D4" opacity="1.000000" stroke="none" 
	d="
M256.017914,198.108063 
	C255.249298,205.533981 249.011414,207.841721 243.799316,211.028763 
	C236.301224,215.613602 228.781631,220.172272 221.138824,224.508804 
	C214.104980,228.499771 206.896210,232.182434 199.395584,236.019196 
	C199.070847,230.414841 204.593552,231.112961 207.521408,229.230972 
	C219.699844,221.403000 232.001251,213.633423 244.888397,207.083694 
	C254.879410,202.005875 255.340469,193.362961 255.844498,184.530869 
	C256.410889,174.605743 256.160980,164.634048 256.569702,154.787750 
	C256.883942,159.704880 256.996094,164.519241 256.884033,169.328354 
	C256.660431,178.923111 256.313751,188.514999 256.017914,198.108063 
z"/>
<path fill="#394CD0" opacity="1.000000" stroke="none" 
	d="
M230.444885,141.077301 
	C230.071136,140.906128 230.046722,140.705048 229.984680,140.201447 
	C231.360870,140.068481 233.236572,139.721054 234.106964,140.498749 
	C237.522217,143.550323 240.836227,146.778351 243.748734,150.303635 
	C245.286377,152.164764 246.751297,154.749191 246.818619,157.048950 
	C247.138779,167.986313 247.036591,178.938675 246.940506,189.884445 
	C246.894867,195.084579 244.748199,198.703659 239.622589,201.105438 
	C231.443787,204.937912 223.659119,209.611511 215.352905,213.717606 
	C214.998444,213.335281 214.998840,213.164810 214.999252,212.994354 
	C218.698624,210.467300 222.303818,207.786438 226.120071,205.450287 
	C231.460022,202.181381 236.964890,199.182434 242.368591,196.015762 
	C242.698410,195.822464 242.759811,195.171112 243.420135,194.306625 
	C244.116333,191.165619 244.338455,188.450867 244.583038,185.407013 
	C244.597687,184.418335 244.589874,183.758774 244.706604,182.638550 
	C244.746307,176.420731 244.661499,170.663559 244.587219,164.606201 
	C244.590240,163.905609 244.582733,163.505234 244.700119,162.695099 
	C244.739960,161.159164 244.654892,160.032974 244.585907,158.528839 
	C244.580902,157.142853 244.559814,156.134842 244.656296,154.832932 
	C244.481903,154.063385 244.189941,153.587738 243.650543,153.096619 
	C243.403107,153.081146 242.912064,153.012299 242.912064,153.012299 
	C240.169022,150.404419 237.402039,147.821091 234.693024,145.178360 
	C233.338837,143.857315 232.090469,142.427811 230.444885,141.077301 
z"/>
<path fill="#3F50D4" opacity="1.000000" stroke="none" 
	d="
M308.244446,299.068390 
	C308.244415,299.068390 308.375244,298.937988 308.868256,299.104431 
	C309.562805,298.816437 309.764343,298.362000 309.965851,297.907532 
	C309.965851,297.907532 309.973938,297.980835 310.345215,297.939178 
	C311.004364,295.796631 311.540192,293.696106 311.543152,291.594818 
	C311.593292,255.737106 311.591797,219.879288 311.546844,184.021545 
	C311.543549,181.382935 311.121368,178.744843 310.961426,176.040665 
	C311.028900,175.974823 311.165497,175.844833 311.165497,175.844833 
	C311.777161,177.402130 312.919128,178.958176 312.922821,180.516922 
	C313.013428,218.762329 313.055115,257.008453 312.812195,295.252594 
	C312.796051,297.789581 311.041565,300.992676 309.069855,302.704407 
	C304.417480,306.743378 300.958435,311.156830 299.865173,317.368164 
	C299.095581,321.740479 295.952026,323.663239 291.307190,323.961975 
	C296.835052,320.702820 297.949890,314.885559 299.753265,309.046021 
	C300.751892,305.812347 304.390839,303.394073 307.255035,300.235962 
	C307.861755,299.598602 308.053101,299.333496 308.244446,299.068390 
z"/>
<path fill="#BCC7FF" opacity="1.000000" stroke="none" 
	d="
M378.384735,331.130951 
	C378.385712,331.810577 378.386719,332.490173 378.275085,333.877441 
	C378.168701,335.104767 378.174957,335.624481 378.181183,336.144165 
	C377.944916,336.669464 377.708649,337.194733 377.217468,337.859192 
	C376.986816,271.656677 377.011047,205.314987 377.108337,138.511246 
	C377.483185,138.110199 377.739716,138.252731 378.028473,139.054855 
	C378.223145,140.141739 378.340332,140.650543 378.457520,141.159348 
	C378.439850,141.833725 378.422211,142.508118 378.269562,143.982452 
	C378.092163,145.447067 378.012756,146.111725 378.012665,146.776398 
	C378.005981,203.096634 378.001007,259.416870 378.028870,315.737091 
	C378.029602,317.203735 378.393494,318.670227 378.588013,320.136780 
	C378.587219,321.449982 378.586426,322.763153 378.399567,324.818726 
	C378.270569,327.417694 378.327667,329.274323 378.384735,331.130951 
z"/>
<path fill="#4554CD" opacity="1.000000" stroke="none" 
	d="
M138.026154,194.887207 
	C133.702545,197.784729 129.378937,200.682236 124.365311,203.926239 
	C123.458191,205.215866 123.051292,206.159012 123.051285,207.102158 
	C123.050621,250.029907 123.085579,292.957642 123.035156,335.961853 
	C122.953949,336.038330 122.787628,336.186951 122.787628,336.186951 
	C122.522217,334.415222 122.026848,332.643738 122.025139,330.871765 
	C121.985847,290.123688 122.049179,249.375473 121.942047,208.627670 
	C121.928856,203.606888 122.374565,199.564377 128.094574,197.749252 
	C131.316833,196.726746 134.191055,194.607483 137.601624,192.978485 
	C137.981201,192.974670 137.999390,192.999390 137.999664,193.314056 
	C138.008682,194.048233 138.017410,194.467712 138.026154,194.887207 
z"/>
<path fill="#C8D3FF" opacity="1.000000" stroke="none" 
	d="
M324.039215,298.272827 
	C323.742554,286.969910 323.877106,275.817078 323.891174,264.664093 
	C323.925629,237.350266 323.922974,210.036346 323.876160,182.722565 
	C323.871613,180.082047 323.454529,177.442245 323.161194,174.395889 
	C323.733429,175.313400 324.924530,176.634323 324.931305,177.961273 
	C325.044525,200.211700 325.008942,222.462860 325.008453,244.713867 
	C325.008057,262.149353 325.010376,279.584839 325.041840,297.484039 
	C324.853333,298.106110 324.634460,298.264435 324.039215,298.272827 
z"/>
<path fill="#929FF4" opacity="1.000000" stroke="none" 
	d="
M173.567505,300.463257 
	C176.132721,297.907990 176.073700,294.518646 176.049377,291.001434 
	C175.954926,277.342712 175.946869,263.682587 176.047424,250.024017 
	C176.070084,246.945190 176.659882,243.870529 177.363525,240.679047 
	C177.771179,260.019623 177.803925,279.475128 177.836670,298.930634 
	C176.531784,299.435516 175.226898,299.940399 173.567505,300.463257 
z"/>
<path fill="#4051D2" opacity="1.000000" stroke="none" 
	d="
M178.146820,298.651672 
	C177.803925,279.475128 177.771179,260.019623 177.450684,240.251831 
	C179.401428,236.807175 181.142838,233.080429 184.001617,230.689880 
	C187.747910,227.557159 192.376038,225.479004 196.897415,222.784653 
	C196.700500,223.615768 196.495987,224.987534 195.714111,225.535492 
	C192.866989,227.530853 189.758682,229.149826 186.874390,231.096695 
	C181.593109,234.661545 178.883026,239.546295 178.940857,246.096817 
	C179.078827,261.725220 179.012985,277.355652 178.977295,292.985138 
	C178.973190,294.781372 178.638412,296.576904 178.146820,298.651672 
z"/>
<path fill="#4353C0" opacity="1.000000" stroke="none" 
	d="
M189.813324,298.134399 
	C189.217010,296.757721 188.112350,295.384857 188.102005,294.003784 
	C187.981842,277.959991 187.986954,261.914673 188.094803,245.870682 
	C188.104691,244.399216 189.050781,242.934052 189.895325,241.802582 
	C190.142487,244.282715 189.990250,246.425934 189.980972,248.569794 
	C189.909470,265.091278 189.865707,281.612854 189.813324,298.134399 
z"/>
<path fill="#3F50D4" opacity="1.000000" stroke="none" 
	d="
M291.083130,164.503799 
	C283.080383,160.408340 274.919128,156.148026 267.067902,151.377579 
	C264.414093,149.765137 262.679718,149.613815 259.998901,151.909271 
	C258.656433,152.047882 257.986938,152.075104 257.317474,152.102325 
	C257.402191,148.491196 262.821472,145.797882 266.592010,147.920609 
	C274.543732,152.397263 282.315735,157.195190 290.104370,161.954788 
	C290.656891,162.292404 290.742950,163.393387 291.083130,164.503799 
z"/>
<path fill="#4554CD" opacity="1.000000" stroke="none" 
	d="
M123.842934,335.951630 
	C126.003334,340.078186 127.788261,340.222534 131.732941,337.837219 
	C141.931808,331.669983 152.314865,325.807312 162.915070,319.689056 
	C162.001160,321.090485 161.099426,323.115204 159.541382,324.079468 
	C151.229752,329.223602 142.768143,334.126648 134.330109,339.064728 
	C128.642181,342.393372 124.225708,341.544647 122.842018,336.572327 
	C122.787628,336.186951 122.953949,336.038330 123.215775,335.989532 
	C123.477608,335.940735 123.842934,335.951630 123.842934,335.951630 
z"/>
<path fill="#3F50D4" opacity="1.000000" stroke="none" 
	d="
M253.217773,345.988953 
	C255.316040,344.284668 257.762421,342.482147 260.354736,340.922058 
	C269.635345,335.336853 278.959839,329.824432 288.291229,324.324341 
	C288.818176,324.013794 289.555603,324.060272 290.570923,323.920288 
	C289.374176,325.365875 287.994690,327.148621 286.196625,328.244720 
	C276.540710,334.130920 266.799469,339.878601 257.025452,345.567169 
	C256.117737,346.095490 254.774063,345.874847 253.217773,345.988953 
z"/>
<path fill="#C2CDF9" opacity="1.000000" stroke="none" 
	d="
M189.984467,298.432861 
	C189.865707,281.612854 189.909470,265.091278 189.980972,248.569794 
	C189.990250,246.425934 190.142487,244.282715 190.278137,241.693695 
	C191.335297,240.541077 192.342819,239.833954 193.914261,239.024231 
	C194.677979,238.978302 194.877808,239.034973 195.077621,239.091629 
	C189.511322,243.686844 191.050354,250.017532 191.024231,255.929672 
	C190.970657,268.055023 191.144226,280.183228 190.924805,292.304840 
	C190.859283,295.924561 191.226303,298.797089 195.049042,300.565674 
	C193.437317,300.224335 191.796448,299.477814 189.984467,298.432861 
z"/>
<path fill="#3F50D4" opacity="1.000000" stroke="none" 
	d="
M308.940735,176.103271 
	C303.354675,172.630905 297.768646,169.158524 292.025085,165.365524 
	C292.751099,164.735336 293.979156,163.887421 294.465393,164.198593 
	C300.028656,167.758987 305.479034,171.495819 311.062500,175.515228 
	C311.165497,175.844833 311.028900,175.974823 310.635803,176.025360 
	C309.808716,176.085022 309.374725,176.094147 308.940735,176.103271 
z"/>
<path fill="#C8D3FF" opacity="1.000000" stroke="none" 
	d="
M257.227295,152.418213 
	C257.986938,152.075104 258.656433,152.047882 259.661499,152.046432 
	C259.330841,153.683365 258.108002,155.287277 258.087006,156.906799 
	C257.927612,169.182053 258.039734,181.460571 257.957672,193.737350 
	C257.948151,195.162445 257.269287,196.583084 256.459351,198.056915 
	C256.313751,188.514999 256.660431,178.923111 256.884033,169.328354 
	C256.996094,164.519241 256.883942,159.704880 256.778931,154.429932 
	C256.835449,153.556000 256.986267,153.145050 257.227295,152.418213 
z"/>
<path fill="#4F5FCE" opacity="1.000000" stroke="none" 
	d="
M329.503052,301.044739 
	C334.286163,304.568756 335.217651,310.117279 336.895874,315.633301 
	C336.187561,315.383850 335.458740,314.804718 334.919739,314.083618 
	C331.601624,309.644562 328.326355,305.173401 325.422180,300.383484 
	C327.039368,300.384216 328.271210,300.714478 329.503052,301.044739 
z"/>
<path fill="#C8D3FF" opacity="1.000000" stroke="none" 
	d="
M258.400452,71.878998 
	C258.545502,86.220001 258.274139,100.652206 258.047302,115.553482 
	C257.685608,115.247147 256.929321,114.473549 256.925293,113.696083 
	C256.858063,100.631332 256.864441,87.566002 256.937347,74.501259 
	C256.942047,73.655647 257.619507,72.813789 258.400452,71.878998 
z"/>
<path fill="#4051D2" opacity="1.000000" stroke="none" 
	d="
M197.988190,222.412979 
	C202.508865,219.439072 207.381653,216.711243 212.622101,213.962677 
	C209.460693,219.123260 204.360886,221.664856 197.988190,222.412979 
z"/>
<path fill="#4F5FCE" opacity="1.000000" stroke="none" 
	d="
M307.892029,160.457672 
	C311.558990,162.311172 315.334686,164.494370 319.266418,166.953384 
	C313.950043,168.034332 311.512756,163.458038 307.892029,160.457672 
z"/>
<path fill="#4353C0" opacity="1.000000" stroke="none" 
	d="
M195.385406,238.975403 
	C194.877808,239.034973 194.677979,238.978302 194.172119,238.856628 
	C195.347198,237.847916 196.828354,236.904221 198.685577,235.999237 
	C197.938828,236.978378 196.816010,237.918777 195.385406,238.975403 
z"/>
<path fill="#C8D3FF" opacity="1.000000" stroke="none" 
	d="
M329.288788,300.720032 
	C328.271210,300.714478 327.039368,300.384216 325.417297,300.025757 
	C324.849365,299.498505 324.671631,298.999542 324.778351,298.218933 
	C326.400055,298.756653 327.737274,299.576019 329.288788,300.720032 
z"/>
<path fill="#4554CD" opacity="1.000000" stroke="none" 
	d="
M144.613159,188.965759 
	C144.968216,189.388794 144.986252,189.825256 145.018799,190.588791 
	C145.033295,190.915878 144.596191,191.050613 144.019974,191.055878 
	C142.968674,191.050903 142.493591,191.040665 141.976761,190.981995 
	C141.935013,190.933563 141.849579,190.838394 141.849579,190.838394 
	C142.658447,190.218658 143.467300,189.598923 144.613159,188.965759 
z"/>
<path fill="#4F5FCE" opacity="1.000000" stroke="none" 
	d="
M304.050415,158.330292 
	C304.997620,158.403793 306.017456,158.827957 307.112946,159.629959 
	C306.166748,159.565506 305.144928,159.123230 304.050415,158.330292 
z"/>
<path fill="#C8D3FF" opacity="1.000000" stroke="none" 
	d="
M257.845795,116.251038 
	C258.693268,116.388954 259.342529,116.853149 260.029877,117.688263 
	C259.261169,117.565216 258.454376,117.071266 257.845795,116.251038 
z"/>
<path fill="#394CD0" opacity="1.000000" stroke="none" 
	d="
M228.667511,139.966461 
	C228.238861,140.306534 227.476669,140.657761 226.385986,141.027100 
	C226.816330,140.689346 227.575150,140.333481 228.667511,139.966461 
z"/>
<path fill="#7281F4" opacity="1.000000" stroke="none" 
	d="
M378.609192,140.918701 
	C378.340332,140.650543 378.223145,140.141739 378.152039,139.240311 
	C378.198090,138.847687 378.598877,138.896469 378.795593,138.941467 
	C378.915161,139.550323 378.837982,140.114197 378.609192,140.918701 
z"/>
<path fill="#4554CD" opacity="1.000000" stroke="none" 
	d="
M163.790573,319.327454 
	C163.690872,318.897125 163.821152,318.605957 164.021744,318.081116 
	C164.073044,318.389313 164.049210,318.929016 163.790573,319.327454 
z"/>
<path fill="#7281F4" opacity="1.000000" stroke="none" 
	d="
M378.389801,336.122711 
	C378.174957,335.624481 378.168701,335.104767 378.298950,334.216553 
	C378.611755,334.382507 378.788025,334.916962 378.987854,335.739594 
	C379.011383,336.027740 378.598419,336.101257 378.389801,336.122711 
z"/>
<path fill="#4051D2" opacity="1.000000" stroke="none" 
	d="
M214.683716,213.003006 
	C214.998840,213.164810 214.998444,213.335281 214.995850,213.761887 
	C214.540375,214.017563 214.087097,214.017105 213.294022,213.994965 
	C213.425537,213.652740 213.896851,213.332199 214.683716,213.003006 
z"/>
<path fill="#4554CD" opacity="1.000000" stroke="none" 
	d="
M146.668121,187.918091 
	C146.495590,188.202682 146.037872,188.557205 145.277374,188.935257 
	C145.444031,188.635193 145.913467,188.311615 146.668121,187.918091 
z"/>
<path fill="#4554CD" opacity="1.000000" stroke="none" 
	d="
M139.886749,191.882751 
	C140.358017,191.581573 140.829269,191.280396 141.575058,190.908813 
	C141.849579,190.838394 141.935013,190.933563 141.786789,191.202637 
	C141.094513,191.651077 140.550476,191.830429 139.976746,191.977783 
	C139.947083,191.945801 139.886749,191.882751 139.886749,191.882751 
z"/>
<path fill="#4554CD" opacity="1.000000" stroke="none" 
	d="
M137.972137,192.960938 
	C138.420151,192.632797 138.877243,192.318390 139.610535,191.943375 
	C139.886749,191.882751 139.947083,191.945801 139.791595,192.204071 
	C139.090530,192.641342 138.544952,192.820374 137.999390,192.999390 
	C137.999390,192.999390 137.981201,192.974670 137.972137,192.960938 
z"/>
<path fill="#C2CDF9" opacity="1.000000" stroke="none" 
	d="
M194.966248,301.249390 
	C195.323212,301.094574 195.634216,301.273987 196.014435,301.723663 
	C195.695862,301.857147 195.308075,301.720398 194.966248,301.249390 
z"/>
<path fill="#C2CDF9" opacity="1.000000" stroke="none" 
	d="
M196.005188,302.264191 
	C196.332886,302.134460 196.665955,302.353516 197.127380,302.859833 
	C196.840668,302.969025 196.425613,302.791016 196.005188,302.264191 
z"/>
<path fill="#C2CDF9" opacity="1.000000" stroke="none" 
	d="
M309.150574,176.465240 
	C309.374725,176.094147 309.808716,176.085022 310.568329,176.091187 
	C311.121368,178.744843 311.543549,181.382935 311.546844,184.021545 
	C311.591797,219.879288 311.593292,255.737106 311.543152,291.594818 
	C311.540192,293.696106 311.004364,295.796631 310.308350,297.940491 
	C309.934601,258.355774 309.972565,218.728073 309.976532,179.100372 
	C309.976593,178.342667 309.574707,177.584915 309.150574,176.465240 
z"/>
<path fill="#C2CDF9" opacity="1.000000" stroke="none" 
	d="
M307.951660,299.070618 
	C308.053101,299.333496 307.861755,299.598602 307.412018,299.919006 
	C307.322052,299.673828 307.490479,299.373352 307.951660,299.070618 
z"/>
<path fill="#C2CDF9" opacity="1.000000" stroke="none" 
	d="
M309.651276,297.983246 
	C309.764343,298.362000 309.562805,298.816437 308.937256,299.165833 
	C308.787720,298.726807 309.062195,298.392883 309.651276,297.983246 
z"/>
<path fill="#BCC7FF" opacity="1.000000" stroke="none" 
	d="
M123.914948,335.489807 
	C123.842934,335.951630 123.477608,335.940735 123.296982,335.913086 
	C123.085579,292.957642 123.050621,250.029907 123.051285,207.102158 
	C123.051292,206.159012 123.458191,205.215866 124.095276,204.121674 
	C124.343567,205.924011 124.023560,207.877258 124.022003,209.830765 
	C123.988838,251.563156 123.991371,293.295563 123.914948,335.489807 
z"/>
<path fill="#C8D3FF" opacity="1.000000" stroke="none" 
	d="
M244.582077,183.099228 
	C244.589874,183.758774 244.597687,184.418335 244.354675,185.414581 
	C243.800858,185.793335 243.496521,185.820755 243.190857,185.833572 
	C243.129608,175.203461 243.068359,164.573349 242.959595,153.477768 
	C242.912064,153.012299 243.403107,153.081146 243.678009,153.365463 
	C244.148178,154.142136 244.343445,154.634476 244.538727,155.126831 
	C244.559814,156.134842 244.580902,157.142853 244.431061,158.803223 
	C244.365158,160.671997 244.470184,161.888428 244.575211,163.104858 
	C244.582733,163.505234 244.590240,163.905609 244.397049,164.972198 
	C244.324921,171.458679 244.453491,177.278946 244.582077,183.099228 
z"/>
<path fill="#8795F6" opacity="1.000000" stroke="none" 
	d="
M243.108871,186.286545 
	C243.496521,185.820755 243.800858,185.793335 244.332230,185.743713 
	C244.338455,188.450867 244.116333,191.165619 243.503845,193.954926 
	C243.084610,191.599503 243.055756,189.169510 243.108871,186.286545 
z"/>
<path fill="#4454D8" opacity="1.000000" stroke="none" 
	d="
M137.999664,193.314056 
	C138.544952,192.820374 139.090530,192.641342 139.821259,192.236053 
	C140.550476,191.830429 141.094513,191.651077 141.828537,191.251068 
	C142.493591,191.040665 142.968674,191.050903 143.796631,191.105072 
	C142.334763,192.372879 140.520004,193.596771 138.365707,194.853943 
	C138.017410,194.467712 138.008682,194.048233 137.999664,193.314056 
z"/>
<path fill="#7281F4" opacity="1.000000" stroke="none" 
	d="
M378.725433,319.675018 
	C378.393494,318.670227 378.029602,317.203735 378.028870,315.737091 
	C378.001007,259.416870 378.005981,203.096634 378.012665,146.776398 
	C378.012756,146.111725 378.092163,145.447067 378.273926,144.319885 
	C378.608765,145.323318 378.974396,146.789200 378.975098,148.255234 
	C379.002472,204.409958 378.996948,260.564697 378.989258,316.719452 
	C378.989136,317.550720 378.906830,318.381989 378.725433,319.675018 
z"/>
<path fill="#7281F4" opacity="1.000000" stroke="none" 
	d="
M378.567108,330.785217 
	C378.327667,329.274323 378.270569,327.417694 378.388184,325.212585 
	C378.625061,326.722595 378.687286,328.581024 378.567108,330.785217 
z"/>
<path fill="#8795F6" opacity="1.000000" stroke="none" 
	d="
M244.706604,182.638550 
	C244.453491,177.278946 244.324921,171.458679 244.386505,165.272400 
	C244.661499,170.663559 244.746307,176.420731 244.706604,182.638550 
z"/>
<path fill="#8795F6" opacity="1.000000" stroke="none" 
	d="
M244.700119,162.695099 
	C244.470184,161.888428 244.365158,160.671997 244.414978,159.181183 
	C244.654892,160.032974 244.739960,161.159164 244.700119,162.695099 
z"/>
<path fill="#8795F6" opacity="1.000000" stroke="none" 
	d="
M244.656311,154.832932 
	C244.343445,154.634476 244.148178,154.142136 243.925446,153.380936 
	C244.189941,153.587738 244.481903,154.063385 244.656311,154.832932 
z"/>
</svg>