<svg version="1.1" id="Layer_1" xmlns="http://www.w3.org/2000/svg" xmlns:xlink="http://www.w3.org/1999/xlink"
	 viewBox="102 91 282 282" width="512" height="512" xml:space="preserve" preserveAspectRatio="xMidYMid meet"
	 shape-rendering="geometricPrecision">
<path fill="#000000" opacity="1.000000" stroke="none" 
	d="
M274.465454,357.540192 
	C266.373932,362.244965 258.549194,366.682892 250.840790,371.314453 
	C244.993179,374.828003 239.468155,374.889526 233.477936,371.370911 
	C207.340469,356.018127 181.097672,340.844452 154.870560,325.644684 
	C150.574966,323.155182 147.780914,319.674561 146.912445,314.742432 
	C146.680847,313.427124 146.575089,312.063141 145.334900,311.214020 
	C140.149109,307.663391 139.505936,302.490723 139.535248,296.691406 
	C139.687576,266.534973 139.706467,236.376831 139.537201,206.220596 
	C139.501328,199.829346 141.895294,195.559982 147.401154,192.400757 
	C174.124451,177.067123 200.741867,161.549103 227.433411,146.159912 
	C233.686676,142.554550 238.132492,138.383743 237.006897,130.081421 
	C236.208527,124.192757 236.835480,118.106194 236.883331,112.108414 
	C236.993393,98.316605 246.732483,92.344002 258.774414,99.182899 
	C282.667572,112.752373 306.006836,127.336334 330.247253,140.237991 
	C341.744904,146.357513 345.689606,153.903961 345.474792,166.735733 
	C344.749878,210.043213 345.188293,253.370575 345.245026,296.690247 
	C345.252563,302.453400 344.276337,307.658875 339.152557,311.184235 
	C338.120361,311.894470 337.465179,312.817291 337.404846,314.057159 
	C337.108612,320.145325 333.232361,323.511841 328.390533,326.302338 
	C310.498291,336.614136 292.648224,346.999146 274.465454,357.540192 
M198.333374,237.801224 
	C198.335022,247.964645 198.401932,258.128723 198.295151,268.291016 
	C198.266327,271.034637 198.952423,272.986237 201.415085,274.528870 
	C204.814255,276.658142 207.002960,279.915314 207.236481,283.961151 
	C207.396133,286.727020 208.795181,288.156250 210.923294,289.385071 
	C220.296906,294.797638 229.659698,300.229095 239.006531,305.687744 
	C241.282333,307.016815 243.320404,306.760071 245.557556,305.446869 
	C254.318512,300.303986 263.117157,295.223022 271.970978,290.242004 
	C274.913208,288.586761 276.821716,286.549408 277.320984,283.013153 
	C277.800995,279.613342 279.698547,276.689941 282.625092,274.858185 
	C285.258148,273.210114 285.906708,271.071625 285.899323,268.167450 
	C285.831940,241.676147 285.810760,215.184341 285.930573,188.693405 
	C285.947083,185.041031 284.561218,182.847748 281.474762,181.113892 
	C272.763062,176.220062 264.186859,171.085571 255.496750,166.152573 
	C250.535263,163.336166 247.460342,165.069885 247.373932,170.730301 
	C247.262070,178.059601 247.072189,185.404678 247.417984,192.719223 
	C247.766205,200.084717 244.793182,205.003815 238.403244,208.535202 
	C226.598038,215.059341 215.001495,221.960022 203.265091,228.610413 
	C199.958206,230.484268 197.612823,232.719513 198.333374,237.801224 
M329.421204,152.183990 
	C304.649139,137.794785 279.882538,123.396088 255.101288,109.022751 
	C248.500931,105.194489 247.395187,105.807526 247.354095,113.255173 
	C247.315475,120.252777 247.455643,127.253349 247.292587,134.247375 
	C247.220764,137.327667 247.925674,139.598724 250.642197,141.436325 
	C254.108353,143.781036 256.170715,147.300400 256.264130,151.535339 
	C256.326843,154.379898 257.894928,155.594254 260.044220,156.810486 
	C269.031097,161.895950 277.832397,167.324814 286.952301,172.154617 
	C293.643250,175.698074 296.417542,180.824203 296.372955,188.275513 
	C296.215393,214.599716 296.349121,240.925522 296.276459,267.250458 
	C296.267639,270.439789 296.723969,272.948700 299.689789,274.913208 
	C303.001129,277.106506 304.908051,280.528351 305.250671,284.556061 
	C305.408112,286.406799 306.064545,287.709198 307.639374,288.619965 
	C315.135742,292.955200 322.615845,297.318726 330.124420,301.632660 
	C332.815216,303.178589 334.231873,301.922150 334.650452,299.233978 
	C334.879150,297.765106 334.792633,296.242035 334.792725,294.743408 
	C334.795502,250.090637 334.745911,205.437759 334.866058,160.785324 
	C334.876801,156.793610 333.929779,153.979355 329.421204,152.183990 
M217.330322,163.921295 
	C196.151962,176.215729 174.990738,188.539871 153.776215,200.771606 
	C150.698578,202.546082 149.247833,204.850159 149.317413,208.441010 
	C149.456223,215.604675 149.346893,222.773071 149.346481,229.939514 
	C149.345245,251.938873 149.332199,273.938263 149.356247,295.937592 
	C149.363953,302.998566 150.711426,303.750000 156.893478,300.177002 
	C162.663559,296.842072 168.352417,293.364777 174.158371,290.094604 
	C176.904068,288.548065 178.882156,286.803619 179.283813,283.357788 
	C179.704971,279.744690 181.776764,276.735413 184.803406,274.765930 
	C187.408829,273.070526 188.077042,270.888489 188.057938,268.017578 
	C187.984833,257.018494 188.030640,246.018570 188.038681,235.018951 
	C188.043457,228.469147 190.687469,223.729660 196.650421,220.436630 
	C208.898392,213.672714 220.894608,206.453979 233.031174,199.486420 
	C235.372192,198.142456 236.915146,196.558441 236.879471,193.629852 
	C236.782028,185.631439 236.825027,177.631317 236.813538,169.631866 
	C236.811295,168.080414 236.625259,166.547836 235.123825,165.711777 
	C231.959091,163.949478 230.106842,160.978928 227.961472,157.682724 
	C224.495071,159.707458 221.221832,161.619370 217.330322,163.921295 
M289.349670,336.791748 
	C300.443207,330.363861 311.539856,323.941315 322.628998,317.505829 
	C328.005402,314.385681 328.098663,312.720306 322.943420,309.668152 
	C316.782471,306.020630 310.534393,302.520416 304.368866,298.880524 
	C302.307373,297.663452 300.579865,297.631531 298.368622,298.844513 
	C293.701141,301.405060 288.648285,301.455475 284.024261,298.907318 
	C281.333160,297.424316 279.469177,298.008575 277.163879,299.352509 
	C268.390015,304.467377 259.428314,309.268860 250.762405,314.557068 
	C244.595245,318.320587 238.958359,317.888763 232.973495,314.286102 
	C224.415649,309.134613 215.660797,304.311462 207.049835,299.246490 
	C204.718079,297.874908 202.759140,297.325134 200.192627,298.981293 
	C196.807877,301.165405 192.274445,301.949829 189.196411,299.968109 
	C183.070999,296.024414 178.955536,299.566101 174.312180,302.264740 
	C170.137268,304.691071 165.900116,307.011414 161.747940,309.475464 
	C156.175064,312.782593 156.189301,314.345123 161.732071,317.558685 
	C187.228043,332.340668 212.748260,347.081055 238.199600,361.939453 
	C240.956406,363.548859 243.178970,363.769073 246.012146,362.089600 
	C260.190826,353.684448 274.471039,345.450562 289.349670,336.791748 
z"/>
</svg>