<svg version="1.1" id="Layer_1" xmlns="http://www.w3.org/2000/svg" xmlns:xlink="http://www.w3.org/1999/xlink"
	 viewBox="102 101 298 298" width="512" height="512" xml:space="preserve" preserveAspectRatio="xMidYMid meet">
<path fill="#38B6FF" opacity="1.000000" stroke="none" 
	d="
M274.729218,381.729279 
	C268.673645,387.051819 264.456207,394.045837 256.248138,396.183594 
	C248.538116,398.191559 241.571274,396.949402 236.001144,391.401276 
	C194.102737,349.668762 152.282730,307.857086 110.565651,265.943359 
	C102.133614,257.471558 103.058754,244.533905 112.328186,235.239639 
	C136.677902,210.824600 161.086914,186.468719 185.469925,162.086884 
	C201.371994,146.185547 217.263336,130.273453 233.171738,114.378464 
	C245.778214,101.782623 257.231689,101.735558 269.705353,114.209297 
	C309.282959,153.787048 348.866150,193.359146 388.429352,232.951263 
	C400.155365,244.685867 400.132874,256.246185 388.375427,268.016571 
	C350.586456,305.847198 312.779297,343.659698 274.729218,381.729279 
M284.764465,338.834442 
	C285.436920,337.291168 286.109406,335.747894 287.326233,332.955322 
	C289.838470,335.271942 291.892853,337.166351 294.224213,339.316162 
	C294.224213,335.474854 294.661652,332.280670 294.049866,329.301941 
	C293.716339,327.677917 291.845276,325.745575 290.232056,325.167145 
	C288.235779,324.451416 285.787659,324.995880 283.191650,324.995880 
	C283.191650,329.508759 283.191650,333.298462 282.441498,336.982269 
	C280.534607,332.923828 278.627716,328.865387 276.201233,323.701141 
	C273.706665,328.656708 271.840637,332.363678 269.647583,335.252014 
	C270.316345,328.525116 268.362549,325.170776 263.604370,324.876648 
	C258.843170,324.582397 256.534454,327.233002 255.497772,332.936737 
	C255.210617,332.035889 254.540253,331.059357 254.700607,330.246857 
	C255.531113,326.038940 253.406982,324.803223 249.728943,324.956604 
	C248.145569,325.022614 246.564606,325.146362 244.785828,325.256042 
	C244.785828,330.012634 244.785828,334.254883 244.785828,338.450165 
	C249.897141,339.925079 254.073837,339.437714 257.123901,335.599213 
	C261.257721,340.758881 262.614197,340.800659 270.107819,336.740173 
	C270.659210,337.330048 271.210602,337.919891 271.761993,338.509766 
	C274.561249,334.855194 277.276306,334.580597 280.340759,338.365784 
	C280.880646,339.032623 282.750580,338.622650 284.764465,338.834442 
M206.603638,334.267059 
	C206.765854,325.909546 204.302170,324.033295 194.597168,325.470886 
	C194.597168,329.774689 194.597168,334.137695 194.597168,338.564148 
	C199.681961,339.838348 203.876709,339.161041 207.179474,335.742798 
	C207.224854,336.746552 207.270233,337.750305 207.264542,337.624329 
	C210.287720,337.139069 214.423996,335.511383 215.224075,336.522797 
	C217.895218,339.899414 221.430923,338.463165 224.394424,339.074768 
	C225.870285,339.379364 227.907928,336.962006 229.691437,335.775909 
	C228.441498,334.153931 227.358215,332.353424 225.881393,330.974426 
	C224.940506,330.095856 223.416183,329.842102 222.153458,329.308197 
	C222.234314,328.896454 222.315170,328.484741 222.396027,328.072998 
	C224.652924,328.072998 226.909821,328.072998 229.166718,328.072998 
	C229.247345,327.460175 229.327988,326.847321 229.408615,326.234497 
	C227.106735,325.844513 224.758530,325.012238 222.522064,325.246613 
	C221.361649,325.368225 219.370850,328.250000 219.500351,328.402435 
	C221.620316,330.898193 224.019287,333.156952 226.636658,335.747406 
	C216.675049,339.358734 217.017944,328.978668 212.708954,324.314850 
	C210.593445,328.282654 208.797150,331.651733 206.603638,334.267059 
M319.849640,230.342789 
	C320.982117,225.495331 322.395721,220.692917 323.181244,215.789886 
	C324.360870,208.426590 320.612183,202.247177 313.789825,199.471085 
	C306.681824,196.578751 299.547729,198.450195 295.061005,204.440979 
	C294.131561,205.681961 293.372742,207.050735 292.379883,208.603699 
	C289.097198,202.238800 284.553223,198.280319 277.403748,198.125900 
	C270.111328,197.968399 265.550781,202.265488 261.893921,208.149063 
	C256.265167,197.179733 244.421204,194.135895 233.517456,204.067581 
	C229.348297,202.583450 225.384644,200.249985 221.248825,199.888962 
	C212.166321,199.096161 202.966812,198.768784 193.872818,199.279541 
	C187.433807,199.641205 182.120117,206.219803 182.032700,212.821518 
	C181.836441,227.645264 181.858871,242.474686 182.026733,257.299133 
	C182.095001,263.326538 187.165253,270.193451 192.978821,270.545532 
	C202.718842,271.135406 212.604568,271.031464 222.305664,270.027740 
	C230.544540,269.175293 236.448975,263.354431 242.043747,256.497955 
	C244.818008,264.788177 248.808228,271.074097 257.790344,271.822052 
	C266.528900,272.549744 272.816986,268.669342 277.216064,260.879333 
	C277.841766,261.733917 278.258392,262.196198 278.555939,262.725433 
	C282.668457,270.040222 289.318268,272.509979 297.144531,271.688812 
	C304.994690,270.865173 309.505737,265.694122 311.692993,258.417969 
	C314.420441,249.345123 316.993774,240.225937 319.849640,230.342789 
M257.253418,134.303223 
	C255.099518,131.351730 252.945618,128.400223 250.429535,124.952415 
	C248.640778,131.658539 244.425888,135.510574 238.098770,137.771820 
	C244.677994,139.896149 248.638809,144.237503 250.954010,150.727600 
	C253.030701,144.002731 257.365265,140.015396 264.579315,138.020828 
	C261.623901,136.560074 259.743958,135.630890 257.253418,134.303223 
M241.308578,338.810394 
	C243.626480,334.245819 242.913956,329.758942 240.539413,325.188049 
	C240.137283,326.824280 239.735168,328.460510 239.300491,330.229156 
	C237.595825,330.229156 236.012939,330.229156 234.524368,330.229156 
	C233.841949,328.318237 233.256027,326.677582 232.670120,325.036926 
	C232.287582,325.126587 231.905045,325.216278 231.522507,325.305939 
	C231.522507,329.792999 231.522507,334.280060 231.522507,338.767090 
	C231.913315,338.844360 232.304123,338.921661 232.694946,338.998932 
	C233.281937,337.328522 233.868927,335.658081 234.472702,333.939880 
	C236.183304,333.939880 237.868546,333.939880 239.444107,333.939880 
	C239.856720,335.806519 240.172409,337.234772 241.308578,338.810394 
M296.863617,338.681091 
	C301.119019,339.160461 305.991608,340.438599 307.664734,334.862244 
	C308.366577,332.523071 307.990723,328.357178 306.456726,327.192627 
	C303.973236,325.307129 300.129883,325.212769 296.298340,324.215820 
	C296.298340,329.799377 296.298340,333.891083 296.863617,338.681091 
z"/>
<path fill="#1F5478" opacity="1.000000" stroke="none" 
	d="
M319.741638,230.734772 
	C316.993774,240.225937 314.420441,249.345123 311.692993,258.417969 
	C309.505737,265.694122 304.994690,270.865173 297.144531,271.688812 
	C289.318268,272.509979 282.668457,270.040222 278.555939,262.725433 
	C278.258392,262.196198 277.841766,261.733917 277.216064,260.879333 
	C272.816986,268.669342 266.528900,272.549744 257.790344,271.822052 
	C248.808228,271.074097 244.818008,264.788177 242.043747,256.497955 
	C236.448975,263.354431 230.544540,269.175293 222.305664,270.027740 
	C212.604568,271.031464 202.718842,271.135406 192.978821,270.545532 
	C187.165253,270.193451 182.095001,263.326538 182.026733,257.299133 
	C181.858871,242.474686 181.836441,227.645264 182.032700,212.821518 
	C182.120117,206.219803 187.433807,199.641205 193.872818,199.279541 
	C202.966812,198.768784 212.166321,199.096161 221.248825,199.888962 
	C225.384644,200.249985 229.348297,202.583450 233.517456,204.067581 
	C244.421204,194.135895 256.265167,197.179733 261.893921,208.149063 
	C265.550781,202.265488 270.111328,197.968399 277.403748,198.125900 
	C284.553223,198.280319 289.097198,202.238800 292.379883,208.603699 
	C293.372742,207.050735 294.131561,205.681961 295.061005,204.440979 
	C299.547729,198.450195 306.681824,196.578751 313.789825,199.471085 
	C320.612183,202.247177 324.360870,208.426590 323.181244,215.789886 
	C322.395721,220.692917 320.982117,225.495331 319.741638,230.734772 
M196.649399,207.388428 
	C191.886749,207.415237 190.219879,210.692413 190.160477,214.550980 
	C189.950623,228.183563 189.974274,241.822632 190.136932,255.456528 
	C190.195084,260.332306 193.158173,262.882385 198.177292,262.977051 
	C202.998032,263.067993 207.822479,263.048889 212.644165,262.988495 
	C228.257416,262.792999 239.120682,252.438065 239.785492,236.416473 
	C240.464508,220.052078 230.111786,208.200211 215.278595,207.120071 
	C209.197723,207.393036 203.116852,207.665985 196.649399,207.388428 
M272.263916,208.745621 
	C270.915833,211.139191 269.189880,213.399780 268.291809,215.951721 
	C265.783539,223.079361 263.618011,230.327637 261.317200,237.528290 
	C260.222076,236.841553 260.051483,236.289078 259.910614,235.729111 
	C257.923248,227.828766 256.093994,219.884186 253.893753,212.043655 
	C252.705521,207.809341 249.667862,205.790512 245.109726,206.819305 
	C241.044098,207.736954 238.200256,211.181580 239.328979,215.320618 
	C243.306656,229.906631 247.579453,244.418304 252.087296,258.849792 
	C253.409775,263.083557 257.263336,264.221405 261.493042,263.556305 
	C267.151825,262.666473 269.264954,258.378265 270.820221,253.613358 
	C272.806610,247.527740 274.770325,241.434708 277.185791,233.981049 
	C279.881226,242.065308 281.983459,248.683289 284.298950,255.225830 
	C286.548645,261.582458 289.089020,263.309845 294.731750,263.299988 
	C300.586945,263.289734 302.788696,259.551788 304.147705,254.707291 
	C307.605713,242.380676 311.126404,230.071579 314.547821,217.734909 
	C314.940277,216.319839 315.091736,214.753235 314.957581,213.293396 
	C314.612488,209.539230 312.623108,207.274033 308.713684,206.674454 
	C304.850220,206.081909 302.176697,207.373886 300.837799,211.047989 
	C300.100281,213.071884 299.550049,215.171188 299.024689,217.263931 
	C297.284210,224.196930 295.593353,231.142395 293.577728,239.324127 
	C291.744659,233.577423 290.396027,229.131882 288.905121,224.734589 
	C287.304535,220.013779 285.953003,215.152954 283.793152,210.691971 
	C281.330841,205.606354 276.250580,205.048584 273.000793,209.001968 
	C273.000793,209.001968 272.985596,208.963867 272.263916,208.745621 
z"/>
<path fill="#F7F9F5" opacity="1.000000" stroke="none" 
	d="
M257.558716,134.502472 
	C259.743958,135.630890 261.623901,136.560074 264.579315,138.020828 
	C257.365265,140.015396 253.030701,144.002731 250.954010,150.727600 
	C248.638809,144.237503 244.677994,139.896149 238.098770,137.771820 
	C244.425888,135.510574 248.640778,131.658539 250.429535,124.952415 
	C252.945618,128.400223 255.099518,131.351730 257.558716,134.502472 
z"/>
<path fill="#E8F4F6" opacity="1.000000" stroke="none" 
	d="
M207.000870,335.020844 
	C208.797150,331.651733 210.593445,328.282654 212.708954,324.314850 
	C217.017944,328.978668 216.675049,339.358734 226.636658,335.747406 
	C224.019287,333.156952 221.620316,330.898193 219.500351,328.402435 
	C219.370850,328.250000 221.361649,325.368225 222.522064,325.246613 
	C224.758530,325.012238 227.106735,325.844513 229.408615,326.234497 
	C229.327988,326.847321 229.247345,327.460175 229.166718,328.072998 
	C226.909821,328.072998 224.652924,328.072998 222.396027,328.072998 
	C222.315170,328.484741 222.234314,328.896454 222.153458,329.308197 
	C223.416183,329.842102 224.940506,330.095856 225.881393,330.974426 
	C227.358215,332.353424 228.441498,334.153931 229.691437,335.775909 
	C227.907928,336.962006 225.870285,339.379364 224.394424,339.074768 
	C221.430923,338.463165 217.895218,339.899414 215.224075,336.522797 
	C214.423996,335.511383 210.287720,337.139069 207.264542,337.624329 
	C207.270233,337.750305 207.224854,336.746552 207.104004,335.370483 
	C207.028549,334.998169 207.000870,335.020844 207.000870,335.020844 
z"/>
<path fill="#E8F4F6" opacity="1.000000" stroke="none" 
	d="
M257.028534,334.904572 
	C254.073837,339.437714 249.897141,339.925079 244.785828,338.450165 
	C244.785828,334.254883 244.785828,330.012634 244.785828,325.256042 
	C246.564606,325.146362 248.145569,325.022614 249.728943,324.956604 
	C253.406982,324.803223 255.531113,326.038940 254.700607,330.246857 
	C254.540253,331.059357 255.210617,332.035889 256.107941,333.220886 
	C256.821594,333.971558 256.925079,334.438049 257.028534,334.904572 
z"/>
<path fill="#ECF5F6" opacity="1.000000" stroke="none" 
	d="
M207.037766,334.981964 
	C203.876709,339.161041 199.681961,339.838348 194.597168,338.564148 
	C194.597168,334.137695 194.597168,329.774689 194.597168,325.470886 
	C204.302170,324.033295 206.765854,325.909546 206.802246,334.643951 
	C207.000870,335.020844 207.028549,334.998169 207.037766,334.981964 
M202.780594,335.293060 
	C204.944229,329.433441 203.357605,327.158752 197.282791,327.726654 
	C197.282791,330.601227 197.282791,333.493225 197.282791,337.017609 
	C199.189545,336.561157 200.701050,336.199341 202.780594,335.293060 
z"/>
<path fill="#ECF5F6" opacity="1.000000" stroke="none" 
	d="
M257.076233,335.251892 
	C256.925079,334.438049 256.821594,333.971558 256.538818,333.349792 
	C256.534454,327.233002 258.843170,324.582397 263.604370,324.876648 
	C268.362549,325.170776 270.316345,328.525116 269.825684,335.643524 
	C270.003815,336.035034 270.026245,335.996674 270.026245,335.996674 
	C262.614197,340.800659 261.257721,340.758881 257.076233,335.251892 
M260.625183,335.794525 
	C262.500824,335.533600 265.609161,335.797638 265.991180,334.900635 
	C266.747192,333.125366 266.378998,330.567352 265.664948,328.631989 
	C265.409088,327.938477 261.848267,327.449463 261.469299,328.006195 
	C260.327087,329.684204 259.959229,331.909332 259.414795,333.954437 
	C259.324249,334.294617 259.862061,334.802032 260.625183,335.794525 
z"/>
<path fill="#F7F9F5" opacity="1.000000" stroke="none" 
	d="
M240.898346,338.736694 
	C240.172409,337.234772 239.856720,335.806519 239.444107,333.939880 
	C237.868546,333.939880 236.183304,333.939880 234.472702,333.939880 
	C233.868927,335.658081 233.281937,337.328522 232.694946,338.998932 
	C232.304123,338.921661 231.913315,338.844360 231.522507,338.767090 
	C231.522507,334.280060 231.522507,329.792999 231.522507,325.305939 
	C231.905045,325.216278 232.287582,325.126587 232.670120,325.036926 
	C233.256027,326.677582 233.841949,328.318237 234.524368,330.229156 
	C236.012939,330.229156 237.595825,330.229156 239.300491,330.229156 
	C239.735168,328.460510 240.137283,326.824280 240.539413,325.188049 
	C242.913956,329.758942 243.626480,334.245819 240.898346,338.736694 
z"/>
<path fill="#EAF4F6" opacity="1.000000" stroke="none" 
	d="
M296.580994,338.331909 
	C296.298340,333.891083 296.298340,329.799377 296.298340,324.215820 
	C300.129883,325.212769 303.973236,325.307129 306.456726,327.192627 
	C307.990723,328.357178 308.366577,332.523071 307.664734,334.862244 
	C305.991608,340.438599 301.119019,339.160461 296.580994,338.331909 
M298.917175,333.286041 
	C299.811188,334.435364 300.705170,335.584656 301.599182,336.733978 
	C302.909393,334.957825 305.263641,333.204376 305.302887,331.400543 
	C305.374939,328.092529 302.868347,326.697113 298.916321,327.669281 
	C298.916321,329.228058 298.916321,330.829865 298.917175,333.286041 
z"/>
<path fill="#EAF4F6" opacity="1.000000" stroke="none" 
	d="
M283.191650,337.088165 
	C283.191650,333.298462 283.191650,329.508759 283.191650,324.995880 
	C285.787659,324.995880 288.235779,324.451416 290.232056,325.167145 
	C291.845276,325.745575 293.716339,327.677917 294.049866,329.301941 
	C294.661652,332.280670 294.224213,335.474854 294.224213,339.316162 
	C291.892853,337.166351 289.838470,335.271942 287.326233,332.955322 
	C286.109406,335.747894 285.436920,337.291168 284.365265,338.531891 
	C283.707947,337.848938 283.449799,337.468567 283.191650,337.088165 
M285.940643,329.510254 
	C286.140320,332.762451 288.449951,331.996613 290.137207,331.365448 
	C290.681458,331.161865 290.575043,329.218842 290.766266,328.071533 
	C289.171936,328.278351 287.577576,328.485138 285.940643,329.510254 
z"/>
<path fill="#E8F4F6" opacity="1.000000" stroke="none" 
	d="
M282.816589,337.035217 
	C283.449799,337.468567 283.707947,337.848938 283.986176,338.469635 
	C282.750580,338.622650 280.880646,339.032623 280.340759,338.365784 
	C277.276306,334.580597 274.561249,334.855194 271.761993,338.509766 
	C271.210602,337.919891 270.659210,337.330048 270.067017,336.368408 
	C270.026245,335.996674 270.003815,336.035034 269.989197,336.052856 
	C271.840637,332.363678 273.706665,328.656708 276.201233,323.701141 
	C278.627716,328.865387 280.534607,332.923828 282.816589,337.035217 
z"/>
<path fill="#5ADDE3" opacity="1.000000" stroke="none" 
	d="
M272.963745,208.983398 
	C276.250580,205.048584 281.330841,205.606354 283.793152,210.691971 
	C285.953003,215.152954 287.304535,220.013779 288.905121,224.734589 
	C290.396027,229.131882 291.744659,233.577423 293.577728,239.324127 
	C295.593353,231.142395 297.284210,224.196930 299.024689,217.263931 
	C299.550049,215.171188 300.100281,213.071884 300.837799,211.047989 
	C302.176697,207.373886 304.850220,206.081909 308.713684,206.674454 
	C312.623108,207.274033 314.612488,209.539230 314.957581,213.293396 
	C315.091736,214.753235 314.940277,216.319839 314.547821,217.734909 
	C311.126404,230.071579 307.605713,242.380676 304.147705,254.707291 
	C302.788696,259.551788 300.586945,263.289734 294.731750,263.299988 
	C289.089020,263.309845 286.548645,261.582458 284.298950,255.225830 
	C281.983459,248.683289 279.881226,242.065308 277.185791,233.981049 
	C274.770325,241.434708 272.806610,247.527740 270.820221,253.613358 
	C269.264954,258.378265 267.151825,262.666473 261.493042,263.556305 
	C257.263336,264.221405 253.409775,263.083557 252.087296,258.849792 
	C247.579453,244.418304 243.306656,229.906631 239.328979,215.320618 
	C238.200256,211.181580 241.044098,207.736954 245.109726,206.819305 
	C249.667862,205.790512 252.705521,207.809341 253.893753,212.043655 
	C256.093994,219.884186 257.923248,227.828766 259.910614,235.729111 
	C260.051483,236.289078 260.222076,236.841553 261.317200,237.528290 
	C263.618011,230.327637 265.783539,223.079361 268.291809,215.951721 
	C269.189880,213.399780 270.915833,211.139191 272.651306,209.223511 
	C270.151886,217.503006 267.265045,225.304596 264.378235,233.106186 
	C265.014526,233.324478 265.650848,233.542755 266.287140,233.761032 
	C267.866150,228.976212 269.441437,224.190155 271.025360,219.406952 
	C272.411163,215.222107 273.098450,210.559784 278.117554,208.401810 
	C276.399597,208.595673 274.681671,208.789536 272.963745,208.983398 
M302.023193,212.791077 
	C300.115112,220.729858 298.207001,228.668640 296.298920,236.607437 
	C297.920593,235.701797 298.572113,234.474976 298.916107,233.167252 
	C300.308655,227.872940 301.341492,222.467041 303.039032,217.276276 
	C304.054993,214.169678 306.056366,211.385330 307.737274,208.225937 
	C305.284180,207.492096 303.623596,209.492050 302.023193,212.791077 
z"/>
<path fill="#5ADEE3" opacity="1.000000" stroke="none" 
	d="
M215.926041,207.335556 
	C230.111786,208.200211 240.464508,220.052078 239.785492,236.416473 
	C239.120682,252.438065 228.257416,262.792999 212.644165,262.988495 
	C207.822479,263.048889 202.998032,263.067993 198.177292,262.977051 
	C193.158173,262.882385 190.195084,260.332306 190.136932,255.456528 
	C189.974274,241.822632 189.950623,228.183563 190.160477,214.550980 
	C190.219879,210.692413 191.886749,207.415237 196.812469,207.878494 
	C196.975540,208.368561 196.948853,208.801346 196.641220,208.893311 
	C195.492020,209.600632 194.650452,210.216019 193.514694,211.033600 
	C192.751160,212.907654 192.281799,214.579483 191.812454,216.251328 
	C192.149292,216.341766 192.486130,216.432220 192.822952,216.522659 
	C193.419159,214.876953 194.015350,213.231262 195.011444,211.415009 
	C199.797729,211.051575 204.200974,211.029617 208.564087,210.600220 
	C211.091537,210.351471 213.554413,209.446915 216.032562,208.460693 
	C215.987854,207.834457 215.956940,207.585007 215.926041,207.335556 
M221.081604,248.022629 
	C216.419449,249.703644 211.757309,251.384674 207.126740,253.054306 
	C212.547546,252.883652 218.599854,254.777313 223.191132,248.285233 
	C224.307083,246.549286 225.423035,244.813324 226.538986,243.077377 
	C226.110580,242.800949 225.682190,242.524506 225.253799,242.248077 
	C224.082397,244.082687 222.911011,245.917297 221.081604,248.022629 
M205.005981,243.376694 
	C205.005981,245.150238 205.005981,246.923798 205.005981,248.606232 
	C213.768265,249.756638 218.797272,248.155487 221.668793,243.589905 
	C224.766327,238.664963 224.652557,230.232224 221.204742,225.535309 
	C217.102386,219.946686 211.267548,220.668076 205.005981,221.233643 
	C205.005981,228.494766 205.005981,235.450928 205.005981,243.376694 
z"/>
<path fill="#4CBFCB" opacity="1.000000" stroke="none" 
	d="
M196.948853,208.801346 
	C196.948853,208.801346 196.975540,208.368561 197.005768,208.153748 
	C203.116852,207.665985 209.197723,207.393036 215.602325,207.227814 
	C215.956940,207.585007 215.987854,207.834457 215.563644,208.519699 
	C209.055313,208.904099 203.002075,208.852722 196.948853,208.801346 
z"/>
<path fill="#45BBFE" opacity="1.000000" stroke="none" 
	d="
M202.496582,335.565308 
	C200.701050,336.199341 199.189545,336.561157 197.282791,337.017609 
	C197.282791,333.493225 197.282791,330.601227 197.282791,327.726654 
	C203.357605,327.158752 204.944229,329.433441 202.496582,335.565308 
z"/>
<path fill="#45BBFE" opacity="1.000000" stroke="none" 
	d="
M260.367340,335.513367 
	C259.862061,334.802032 259.324249,334.294617 259.414795,333.954437 
	C259.959229,331.909332 260.327087,329.684204 261.469299,328.006195 
	C261.848267,327.449463 265.409088,327.938477 265.664948,328.631989 
	C266.378998,330.567352 266.747192,333.125366 265.991180,334.900635 
	C265.609161,335.797638 262.500824,335.533600 260.367340,335.513367 
z"/>
<path fill="#45BBFE" opacity="1.000000" stroke="none" 
	d="
M298.916748,332.858856 
	C298.916321,330.829865 298.916321,329.228058 298.916321,327.669281 
	C302.868347,326.697113 305.374939,328.092529 305.302887,331.400543 
	C305.263641,333.204376 302.909393,334.957825 301.599182,336.733978 
	C300.705170,335.584656 299.811188,334.435364 298.916748,332.858856 
z"/>
<path fill="#45BBFE" opacity="1.000000" stroke="none" 
	d="
M285.961945,329.101074 
	C287.577576,328.485138 289.171936,328.278351 290.766296,328.071533 
	C290.575043,329.218842 290.681458,331.161865 290.137207,331.365448 
	C288.449951,331.996613 286.140320,332.762451 285.961945,329.101074 
z"/>
<path fill="#286988" opacity="1.000000" stroke="none" 
	d="
M302.126038,212.412674 
	C303.623596,209.492050 305.284180,207.492096 307.737274,208.225937 
	C306.056366,211.385330 304.054993,214.169678 303.039032,217.276276 
	C301.341492,222.467041 300.308655,227.872940 298.916107,233.167252 
	C298.572113,234.474976 297.920593,235.701797 296.298920,236.607437 
	C298.207001,228.668640 300.115112,220.729858 302.126038,212.412674 
z"/>
<path fill="#286988" opacity="1.000000" stroke="none" 
	d="
M272.982269,208.992676 
	C274.681671,208.789536 276.399597,208.595673 278.117554,208.401810 
	C273.098450,210.559784 272.411163,215.222107 271.025360,219.406952 
	C269.441437,224.190155 267.866150,228.976212 266.287140,233.761032 
	C265.650848,233.542755 265.014526,233.324478 264.378235,233.106186 
	C267.265045,225.304596 270.151886,217.503006 273.012146,209.332642 
	C272.985596,208.963867 273.000793,209.001968 272.982269,208.992676 
z"/>
<path fill="#1F5478" opacity="1.000000" stroke="none" 
	d="
M205.005981,242.891876 
	C205.005981,235.450928 205.005981,228.494766 205.005981,221.233643 
	C211.267548,220.668076 217.102386,219.946686 221.204742,225.535309 
	C224.652557,230.232224 224.766327,238.664963 221.668793,243.589905 
	C218.797272,248.155487 213.768265,249.756638 205.005981,248.606232 
	C205.005981,246.923798 205.005981,245.150238 205.005981,242.891876 
z"/>
<path fill="#1F5478" opacity="1.000000" stroke="none" 
	d="
M196.641220,208.893311 
	C203.002075,208.852722 209.055313,208.904099 215.577454,208.896484 
	C213.554413,209.446915 211.091537,210.351471 208.564087,210.600220 
	C204.200974,211.029617 199.797729,211.051575 194.818588,211.218155 
	C194.086853,211.071701 193.947876,210.951553 193.808884,210.831406 
	C194.650452,210.216019 195.492020,209.600632 196.641220,208.893311 
z"/>
<path fill="#286988" opacity="1.000000" stroke="none" 
	d="
M222.599808,248.540512 
	C218.599854,254.777313 212.547546,252.883652 207.126740,253.054306 
	C211.757309,251.384674 216.419449,249.703644 221.615051,248.095978 
	C222.298950,248.293060 222.449371,248.416779 222.599808,248.540512 
z"/>
<path fill="#286988" opacity="1.000000" stroke="none" 
	d="
M221.944061,247.960632 
	C222.911011,245.917297 224.082397,244.082687 225.253799,242.248077 
	C225.682190,242.524506 226.110580,242.800949 226.538986,243.077377 
	C225.423035,244.813324 224.307083,246.549286 222.895477,248.412872 
	C222.449371,248.416779 222.298950,248.293060 221.944061,247.960632 
z"/>
<path fill="#1F5478" opacity="1.000000" stroke="none" 
	d="
M194.418701,211.388702 
	C194.015350,213.231262 193.419159,214.876953 192.822952,216.522659 
	C192.486130,216.432220 192.149292,216.341766 191.812454,216.251328 
	C192.281799,214.579483 192.751160,212.907654 193.514694,211.033600 
	C193.947876,210.951553 194.086853,211.071701 194.418701,211.388702 
z"/>
</svg>